<svg width="19" height="21" viewBox="0 0 19 21" fill="none" xmlns="http://www.w3.org/2000/svg">
<path d="M-4.37114e-07 10.0012C-1.95608e-07 15.5262 4.36167 20.0012 9.74107 20.0012C14.0457 20.0012 17.6962 17.1362 18.9832 13.1637C19.0749 12.6637 18.7734 12.4804 18.5148 12.4804C18.2835 12.4804 17.6706 12.4887 16.8585 12.4929C17.4459 15.2746 15.5517 15.8612 15.5517 15.8612C14.4274 16.3162 14.1267 16.9737 14.1267 16.9737C13.5228 17.8796 13.5352 16.9037 13.5352 16.9037C13.603 15.8996 14.5389 15.3721 14.5389 15.3721C16.0283 14.4804 15.5979 13.0312 15.3493 12.4596C14.719 12.3696 14.2903 12.1121 14.0466 11.8262C13.8029 14.0471 12.9652 16.3812 9.23304 16.3812C8.16988 16.3812 7.30085 15.9937 6.61933 15.3521C6.37316 15.4646 5.3827 15.8021 4.04116 15.2646C4.04116 15.2646 3.78012 14.4271 5.03988 12.5146C4.82345 11.7146 4.71606 10.8646 4.7111 10.0146C4.71606 9.16455 4.82345 8.31455 5.03988 7.51455C3.78012 5.61455 4.04116 4.77705 4.04116 4.77705C5.3827 4.23955 6.37316 4.57705 6.61933 4.67705C7.30085 4.03955 8.16988 3.65206 9.23304 3.65206C12.9752 3.65206 13.7987 5.98955 14.0383 8.21455C14.3307 7.86455 14.928 7.53955 15.8408 7.53955C17.1444 7.53955 18.1918 7.55205 18.5082 7.55205C18.7635 7.55205 19.0683 7.37705 18.9708 6.86455C17.692 2.86372 14.0391 0.00122009 9.74107 0.00122028C4.36167 0.00122051 -6.7851e-07 4.47872 -4.37114e-07 10.0012Z" fill="white"/>
</svg>
