<svg width="20" height="21" viewBox="0 0 20 21" fill="none" xmlns="http://www.w3.org/2000/svg">
<path d="M-6.01032e-07 6.25183L-2.73196e-07 13.7518C-1.22337e-07 17.2031 2.79875 20.0018 6.25 20.0018L13.75 20.0018C17.2013 20.0018 20 17.2031 20 13.7518L20 6.25183C20 2.80058 17.2012 0.0018303 13.75 0.00183045L6.25 0.00183078C2.79875 0.00183093 -7.51891e-07 2.80058 -6.01032e-07 6.25183ZM13.75 1.87683C16.1625 1.87683 18.125 3.83933 18.125 6.25183L18.125 13.7518C18.125 16.1643 16.1625 18.1268 13.75 18.1268L6.25 18.1268C3.8375 18.1268 1.875 16.1643 1.875 13.7518L1.875 6.25183C1.875 3.83933 3.8375 1.87683 6.25 1.87683L13.75 1.87683Z" fill="white"/>
<path d="M5 10.0018C5 12.7631 7.23875 15.0018 10 15.0018C12.7613 15.0018 15 12.7631 15 10.0018C15 7.24058 12.7612 5.00183 10 5.00183C7.23875 5.00183 5 7.24058 5 10.0018ZM13.125 10.0018C13.125 11.7243 11.7225 13.1268 10 13.1268C8.27625 13.1268 6.875 11.7243 6.875 10.0018C6.875 8.27933 8.27625 6.87683 10 6.87683C11.7225 6.87683 13.125 8.27933 13.125 10.0018Z" fill="white"/>
<path d="M5.29123 4.62683C5.29123 4.25887 4.99295 3.96058 4.62499 3.96058C4.25703 3.96058 3.95874 4.25887 3.95874 4.62683C3.95874 4.99479 4.25703 5.29308 4.62499 5.29308C4.99295 5.29308 5.29123 4.99479 5.29123 4.62683Z" fill="white"/>
</svg>
